<svg
      version="1.0"
      xmlns="http://www.w3.org/2000/svg"
      width="64px"
      height="64px"
      viewBox="0 0 128.000000 128.000000"
      preserveAspectRatio="xMidYMid meet"
    >
      <g
        transform="translate(0.000000,128.000000) scale(0.100000,-0.100000)"
        stroke="none"
      >
        <path
          d="M83 1155 c-27 -16 -49 -40 -62 -68 -20 -42 -21 -58 -21 -447 0 -389
1 -405 21 -447 14 -29 35 -52 63 -68 l43 -25 513 0 513 0 43 25 c28 16 49 39
63 68 20 42 21 58 21 447 0 389 -1 405 -21 447 -14 29 -35 52 -63 68 l-43 25
-514 0 -514 0 -42 -25z m519 -40 c3 -3 -48 -108 -113 -233 -66 -125 -118 -236
-116 -247 2 -18 11 -20 117 -25 l115 -5 3 -127 3 -128 -44 0 c-61 0 -153 26
-215 61 -57 32 -82 28 -82 -12 0 -40 152 -104 272 -116 l69 -6 -3 -56 -3 -56
-195 -3 c-242 -4 -275 0 -312 40 l-28 30 0 405 c0 393 1 406 21 434 11 16 35
33 52 38 33 10 450 15 459 6z m530 -5 c22 -6 46 -23 58 -39 19 -28 20 -42 20
-434 l0 -405 -28 -30 c-37 -40 -70 -44 -312 -40 l-195 3 -3 61 -3 61 65 17
c98 27 186 71 186 94 0 41 -23 43 -106 8 -43 -19 -94 -37 -111 -41 l-32 -6 -3
153 -3 153 -102 3 c-57 1 -103 5 -103 9 0 6 123 244 192 371 l39 72 202 0
c111 0 219 -5 239 -10z"
        />
        <path
          d="M275 957 c-3 -7 -4 -56 -3 -108 3 -93 3 -94 28 -94 l25 0 0 105 c0
101 -1 105 -23 108 -12 2 -24 -3 -27 -11z"
        />
        <path
          d="M865 957 c-3 -7 -4 -56 -3 -108 3 -93 3 -94 28 -94 l25 0 0 105 c0
101 -1 105 -23 108 -12 2 -24 -3 -27 -11z"
        />
      </g>
    </svg>